<svg xmlns="http://www.w3.org/2000/svg" xmlns:v="https://vecta.io/nano" viewBox="0 0 62.246 62.246"><path d="M57.548 45.107H19.965a4.7 4.7 0 0 0 0 9.4h37.583a4.7 4.7 0 0 0 0-9.4zm0-18.705H19.965a4.7 4.7 0 0 0-4.699 4.7 4.7 4.7 0 0 0 4.699 4.699h37.583a4.7 4.7 0 0 0 4.698-4.699 4.7 4.7 0 0 0-4.698-4.7zm-37.583-9.306h37.583a4.7 4.7 0 0 0 4.698-4.7 4.7 4.7 0 0 0-4.698-4.699H19.965a4.7 4.7 0 0 0-4.699 4.699 4.7 4.7 0 0 0 4.699 4.7z"/><circle cx="4.77" cy="12.439" r="4.77"/><circle cx="4.77" cy="31.102" r="4.769"/><circle cx="4.77" cy="49.807" r="4.77"/></svg>
